<?xml version="1.0" encoding="UTF-8"?>
<!DOCTYPE svg PUBLIC "-//W3C//DTD SVG 1.1//EN" "http://www.w3.org/Graphics/SVG/1.1/DTD/svg11.dtd">
<!-- Creator: CorelDRAW X5 -->
<svg xmlns="http://www.w3.org/2000/svg" xml:space="preserve" width="6.72in" height="6.72in" style="shape-rendering:geometricPrecision; text-rendering:geometricPrecision; image-rendering:optimizeQuality; fill-rule:evenodd; clip-rule:evenodd"
viewBox="0 0 6720 6720"
 xmlns:xlink="http://www.w3.org/1999/xlink">
 <defs>
  <style type="text/css">
   <![CDATA[
    .fil1 {fill:none}
    .fil0 {fill:black;fill-rule:nonzero}
   ]]>
  </style>
 </defs>
 <g id="Layer_x0020_1">
  <metadata id="CorelCorpID_0Corel-Layer"/>
  <path class="fil0" d="M3413 823c692,0 1319,281 1773,734 454,454 734,1081 734,1773 0,692 -281,1319 -734,1773 -454,454 -1081,734 -1773,734 -237,0 -466,-33 -684,-95 -212,-60 -413,-148 -599,-258l-1225 408 0 0c-42,14 -87,-9 -101,-51 -7,-21 -5,-43 5,-61l467 -1139c-116,-188 -208,-393 -271,-610 -65,-223 -100,-459 -100,-702 0,-692 281,-1319 734,-1773 454,-454 1081,-734 1773,-734zm1660 848c-425,-425 -1012,-688 -1660,-688 -648,0 -1235,263 -1660,688 -425,425 -688,1012 -688,1660 0,229 33,450 93,658 62,213 154,414 270,598 17,22 22,52 11,79l0 0 -419 1022 1088 -362c23,-10 51,-9 74,5l0 0c182,112 380,200 590,260 203,58 418,88 640,88 648,0 1235,-263 1660,-688 425,-425 688,-1012 688,-1660 0,-648 -263,-1235 -688,-1660z"/>
  <path class="fil0" d="M3226 3926c-1,-35 -2,-62 -2,-79 0,-104 15,-194 44,-269 22,-57 56,-114 104,-172 35,-42 99,-103 190,-184 92,-81 151,-146 179,-194 28,-48 41,-100 41,-157 0,-103 -40,-193 -121,-272 -80,-78 -179,-117 -296,-117 -113,0 -207,36 -282,106 -76,71 -125,181 -149,332l-272 -33c25,-201 97,-355 219,-462 121,-107 281,-160 480,-160 211,0 379,57 505,172 126,115 188,253 188,416 0,94 -22,181 -66,260 -44,79 -130,176 -259,290 -86,77 -143,133 -169,169 -27,37 -46,78 -59,125 -13,47 -20,124 -22,230l-255 0zm-16 531l0 -302 301 0 0 302 -301 0z"/>
 </g>
 <rect class="fil1" width="6720" height="6720"/>
</svg>
